<svg width="30" height="30" viewBox="0 0 30 30" fill="none" xmlns="http://www.w3.org/2000/svg">
<path d="M19.375 9.375C19.375 11.7912 17.4162 13.75 15 13.75C12.5838 13.75 10.625 11.7912 10.625 9.375C10.625 6.95875 12.5838 5 15 5C17.4162 5 19.375 6.95875 19.375 9.375Z" fill="white"/>
<path d="M22.5 20.625C22.5 23.0412 19.1421 25 15 25C10.8579 25 7.5 23.0412 7.5 20.625C7.5 18.2088 10.8579 16.25 15 16.25C19.1421 16.25 22.5 18.2088 22.5 20.625Z" fill="white"/>
<path d="M8.90256 6.25C9.12439 6.25 9.34095 6.27177 9.55007 6.3132C9.04062 7.21807 8.75 8.2626 8.75 9.375C8.75 10.4603 9.02664 11.481 9.51324 12.3705C9.31556 12.4073 9.1114 12.4266 8.90256 12.4266C7.13454 12.4266 5.70128 11.0439 5.70128 9.33829C5.70128 7.63267 7.13454 6.25 8.90256 6.25Z" fill="white"/>
<path d="M6.80917 23.7325C6.09928 22.8839 5.625 21.8425 5.625 20.625C5.625 19.4447 6.07072 18.43 6.74472 17.5959C4.36387 17.7806 2.5 19.0828 2.5 20.6617C2.5 22.2555 4.39663 23.5673 6.80917 23.7325Z" fill="white"/>
<path d="M21.2498 9.375C21.2498 10.4603 20.9731 11.481 20.4865 12.3705C20.6842 12.4073 20.8884 12.4266 21.0972 12.4266C22.8652 12.4266 24.2985 11.0439 24.2985 9.33829C24.2985 7.63267 22.8652 6.25 21.0972 6.25C20.8754 6.25 20.6588 6.27177 20.4497 6.3132C20.9592 7.21807 21.2498 8.2626 21.2498 9.375Z" fill="white"/>
<path d="M23.1906 23.7325C25.6031 23.5673 27.4998 22.2555 27.4998 20.6617C27.4998 19.0828 25.6359 17.7806 23.255 17.5959C23.9291 18.43 24.3748 19.4447 24.3748 20.625C24.3748 21.8425 23.9005 22.8839 23.1906 23.7325Z" fill="white"/>
</svg>
