<?xml version="1.0" encoding="iso-8859-1"?>
<!-- Uploaded to: SVG Repo, www.svgrepo.com, Generator: SVG Repo Mixer Tools -->
<svg version="1.1" id="Layer_1" xmlns="http://www.w3.org/2000/svg" xmlns:xlink="http://www.w3.org/1999/xlink" 
	 viewBox="0 0 511.999 511.999" xml:space="preserve">
<polygon style="fill:#FF754F;" points="394.883,247.83 255.989,247.83 223.308,389.447 362.202,503.83 394.883,503.83 "/>
<g>
	<polygon style="fill:#FF9269;" points="234.202,356.766 255.989,503.83 362.202,503.83 362.202,356.766 	"/>
	<polygon style="fill:#FF9269;" points="255.989,247.83 117.096,247.83 117.096,356.766 186.542,389.447 255.989,356.766 	"/>
</g>
<rect x="117.096" y="356.766" style="fill:#FFB082;" width="138.894" height="147.064"/>
<polygon style="fill:#FFCD9C;" points="212.415,324.085 73.521,324.085 117.096,247.83 255.989,247.83 "/>
<polygon style="fill:#FFB082;" points="299.564,324.085 438.457,324.085 394.883,247.83 255.989,247.83 "/>
<rect x="306.917" y="29.957" style="fill:#2F5E88;" width="54.468" height="152.511"/>
<rect x="148.959" y="29.957" style="fill:#367596;" width="179.745" height="152.511"/>
<polygon style="fill:#88ACB5;" points="339.598,160.681 317.81,182.468 339.598,204.255 372.279,204.255 372.279,160.681 "/>
<rect x="138.066" y="160.681" style="fill:#A7CBCF;" width="201.532" height="43.574"/>
<polygon style="fill:#88ACB5;" points="339.598,8.17 317.81,29.957 339.598,51.745 372.279,51.745 372.279,8.17 "/>
<rect x="138.066" y="8.17" style="fill:#A7CBCF;" width="201.532" height="43.574"/>
<polygon style="fill:#88ACB5;" points="339.598,84.426 317.81,106.213 339.598,128 372.279,128 372.279,84.426 "/>
<rect x="138.066" y="84.426" style="fill:#A7CBCF;" width="201.532" height="43.574"/>
<path d="M445.274,319.548l-43.298-75.772c-1.454-2.546-4.161-4.117-7.094-4.117H117.096c-2.931,0-5.64,1.571-7.094,4.117
	l-43.574,76.255c-1.444,2.528-1.435,5.635,0.026,8.154c1.463,2.52,4.154,4.069,7.067,4.069h35.404v171.574
	c0,4.513,3.657,8.17,8.17,8.17h277.787c4.513,0,8.17-3.657,8.17-8.17V332.255h35.426c4.513,0,8.17-3.657,8.17-8.17
	C446.649,322.406,446.144,320.845,445.274,319.548z M121.838,256h120.074l-34.238,59.915H87.6L121.838,256z M386.713,495.66H264.159
	v-57.191c0-4.513-3.657-8.17-8.17-8.17s-8.17,3.657-8.17,8.17v57.191H125.266V332.255h87.149c2.931,0,5.64-1.571,7.094-4.117
	l28.31-49.543v127.192c0,4.513,3.657,8.17,8.17,8.17s8.17-3.657,8.17-8.17V278.596l28.31,49.543
	c1.454,2.546,4.161,4.117,7.094,4.117h87.149V495.66z M304.306,315.915L270.068,256h120.074l34.238,59.915H304.306z"/>
<path d="M138.066,212.426h234.213c4.513,0,8.17-3.657,8.17-8.17v-43.574c0-4.513-3.657-8.17-8.17-8.17h-2.723v-16.34h2.723
	c4.513,0,8.17-3.657,8.17-8.17V84.426c0-4.513-3.657-8.17-8.17-8.17h-2.723v-16.34h2.723c4.513,0,8.17-3.657,8.17-8.17V8.17
	c0-4.513-3.657-8.17-8.17-8.17H138.066c-4.513,0-8.17,3.657-8.17,8.17v43.574c0,4.513,3.657,8.17,8.17,8.17h2.723v16.34h-2.723
	c-4.513,0-8.17,3.657-8.17,8.17V128c0,4.513,3.657,8.17,8.17,8.17h2.723v16.34h-2.723c-4.513,0-8.17,3.657-8.17,8.17v43.574
	C129.896,208.769,133.554,212.426,138.066,212.426z M364.108,196.085H146.236v-27.234h217.872V196.085z M146.236,16.34h217.872
	v27.234H146.236L146.236,16.34L146.236,16.34z M157.13,59.915h196.085v16.34H157.13L157.13,59.915L157.13,59.915z M157.13,136.17
	h138.894c4.513,0,8.17-3.657,8.17-8.17s-3.657-8.17-8.17-8.17H146.236V92.596h217.872v27.234h-35.404c-4.513,0-8.17,3.657-8.17,8.17
	s3.657,8.17,8.17,8.17h24.511v16.34H157.13L157.13,136.17L157.13,136.17z"/>
</svg>